<?xml version="1.0" standalone="no"?><!DOCTYPE svg PUBLIC "-//W3C//DTD SVG 1.1//EN" "http://www.w3.org/Graphics/SVG/1.1/DTD/svg11.dtd"><svg class="icon" height="512" viewBox="0 0 1024 1024" version="1.1" xmlns="http://www.w3.org/2000/svg"><path d="M814.805405 358.320586c0 167.236841-302.799692 610.169945-302.799692 610.169946s-302.799692-442.933104-302.799692-610.169946 135.562851-302.799692 302.799692-302.799692 302.799692 135.562851 302.799692 302.799692z" fill="" /><path d="M523.70635 282.974882l-12.569043 11.746343s-95.490454-7.827086-104.882958 3.919256c0 0-36.793019-10.957921-44.562973-43.831684-3.130835-13.31176-10.180925-6.261669-9.392504 7.050091s21.138846 43.054688 36.004597 50.093353c0 0-9.392504 7.827086-9.392503 24.269681v52.447192s-16.442595 9.392504-16.442595 17.21959v53.224188s0 6.261669 7.050091 6.261669h43.054688s7.050091-16.442595-28.177511-16.442595c0 0-3.130835-19.573429 9.392504-25.835098s31.308346-25.835098 34.43918-50.093353c0 0 43.054688 31.308346 119.760135 35.227602v57.132017h52.447192s4.696252-15.654173-32.873763-15.654173c0 0 44.997177-112.710044 33.068012-120.53713s-76.922548-46.196949-76.922549-46.196949zM635.44515 235.383912c-8.421259-25.240925-11.15217-33.068012-40.312352-33.068012s-31.891092 3.713581-46.185522 30.725599-19.619135 36.964415-18.39651 39.329681c8.409833 16.236919 68.87836 42.277693 68.87836 42.277692s6.650167-30.919848 18.008012-32.873762c11.346419 1.759666 48.139438 3.919256 53.224187-22.704264s-7.24434-25.595144-35.216175-23.686934z m-56.949195 38.941183c-34.050682-6.650167-12.569044-51.65877 0-57.92044 22.532868 9.438209 32.085341 57.966145 0 57.966145z" fill="#FFFFFF" /></svg>